<?xml version="1.0" standalone="no"?>
<!DOCTYPE svg PUBLIC "-//W3C//DTD SVG 20010904//EN"
 "http://www.w3.org/TR/2001/REC-SVG-20010904/DTD/svg10.dtd">
<svg version="1.0" xmlns="http://www.w3.org/2000/svg"
 width="2000.000000pt" height="2000.000000pt" viewBox="0 0 2000.000000 2000.000000"
 preserveAspectRatio="xMidYMid meet">
<metadata>
Created by potrace 1.14, written by Peter Selinger 2001-2017
</metadata>
<g transform="translate(0.000000,2000.000000) scale(0.100000,-0.100000)"
fill="#000000" stroke="none">
<path d="M3690 14830 l0 -1300 -995 0 c-716 0 -995 -3 -995 -11 0 -6 7 -25 15
-42 13 -28 60 -145 295 -722 33 -82 65 -159 70 -170 9 -20 91 -219 225 -550
40 -99 132 -324 205 -500 72 -176 145 -354 161 -395 l30 -75 822 0 c452 1 827
-2 832 -6 7 -5 10 -498 9 -1448 l-1 -1441 512 0 512 0 1 -422 0 -423 126 -187
c200 -299 473 -668 688 -932 67 -83 206 -247 242 -286 23 -25 52 -59 64 -75
13 -17 40 -48 60 -70 20 -22 80 -87 132 -145 237 -261 742 -764 904 -902 21
-18 53 -47 70 -63 26 -26 86 -78 206 -182 14 -12 36 -31 50 -43 54 -48 293
-246 390 -323 68 -54 216 -170 265 -207 33 -25 66 -50 75 -57 28 -22 104 -78
210 -154 368 -266 802 -545 1020 -656 l108 -55 106 56 c57 30 134 74 171 96
36 22 69 40 74 40 5 0 11 3 13 8 2 4 32 25 68 46 36 22 137 87 225 145 88 58
164 108 170 110 5 2 14 8 20 13 5 5 87 63 180 129 140 99 345 251 415 306 8 6
71 55 140 109 173 134 386 311 600 497 269 234 623 573 915 878 136 142 388
420 461 509 16 19 33 40 39 46 216 236 735 929 975 1302 l34 52 -1 420 0 420
751 0 751 0 149 368 c82 202 155 381 162 397 7 17 70 170 139 340 70 171 148
362 174 425 49 117 58 139 60 153 0 4 7 20 15 35 13 25 47 108 182 440 31 75
75 184 99 242 35 84 237 576 310 755 9 22 20 49 24 60 31 73 106 259 196 480
31 77 62 154 69 170 8 17 69 165 136 330 137 338 133 328 153 375 47 109 317
774 317 782 0 4 -445 8 -990 8 -785 0 -990 3 -991 13 0 6 -1 591 -1 1300 l-1
1287 -6309 0 -6308 0 0 -1300z"/>
</g>
</svg>
